<svg xmlns="http://www.w3.org/2000/svg" viewBox="0 0 960 1120" role="img" aria-labelledby="title desc">
  <title id="title">chain-loop-necklace</title>
  <desc id="desc">NOIR FRAME product artwork for chain-loop-necklace</desc>
  <defs>
    <linearGradient id="bg" x1="0" y1="0" x2="1" y2="1">
      <stop offset="0" stop-color="#080808"/>
      <stop offset="0.58" stop-color="#101114"/>
      <stop offset="1" stop-color="#050506"/>
    </linearGradient>
    <radialGradient id="glow" cx="32%" cy="18%" r="60%">
      <stop offset="0" stop-color="#c9c9c0" stop-opacity=".34"/>
      <stop offset=".55" stop-color="#c9c9c0" stop-opacity=".09"/>
      <stop offset="1" stop-color="#c9c9c0" stop-opacity="0"/>
    </radialGradient>
    <filter id="shadow" x="-20%" y="-20%" width="140%" height="140%">
      <feDropShadow dx="0" dy="30" stdDeviation="28" flood-color="#000" flood-opacity=".55"/>
    </filter>
  </defs>
  <rect width="960" height="1120" fill="url(#bg)"/>
  <rect width="960" height="1120" fill="url(#glow)"/>
  <rect y="910" width="960" height="210" fill="#000" opacity=".38"/>
  <g filter="url(#shadow)" stroke-linecap="round" stroke-linejoin="round">
    <rect x="180" y="380" width="116" height="64" rx="34" fill="none" stroke="#c9c9c0" stroke-width="14"/>
    <rect x="252" y="426" width="116" height="64" rx="34" fill="none" stroke="#c9c9c0" stroke-width="14"/>
    <rect x="324" y="380" width="116" height="64" rx="34" fill="none" stroke="#c9c9c0" stroke-width="14"/>
    <rect x="396" y="426" width="116" height="64" rx="34" fill="none" stroke="#c9c9c0" stroke-width="14"/>
    <rect x="468" y="380" width="116" height="64" rx="34" fill="none" stroke="#c9c9c0" stroke-width="14"/>
    <rect x="540" y="426" width="116" height="64" rx="34" fill="none" stroke="#c9c9c0" stroke-width="14"/>
    <rect x="612" y="380" width="116" height="64" rx="34" fill="none" stroke="#c9c9c0" stroke-width="14"/>
    <rect x="684" y="426" width="116" height="64" rx="34" fill="none" stroke="#c9c9c0" stroke-width="14"/>
    <rect x="756" y="380" width="116" height="64" rx="34" fill="none" stroke="#c9c9c0" stroke-width="14"/>
    <circle cx="480" cy="662" r="98" fill="none" stroke="#c9c9c0" stroke-width="22"/>
  </g>
  <text x="80" y="990" fill="#f3f0e8" opacity=".82" font-family="Arial, sans-serif" font-size="36" letter-spacing="3">CHAIN-LOOP-NECKLACE</text>
  <text x="80" y="1042" fill="#c9c9c0" opacity=".72" font-family="Arial, sans-serif" font-size="22" letter-spacing="5">NOIR FRAME</text>
</svg>
