<svg xmlns="http://www.w3.org/2000/svg" viewBox="0 0 960 1120" role="img" aria-labelledby="title desc">
  <title id="title">veil-pendant-necklace</title>
  <desc id="desc">NOIR FRAME product artwork for veil-pendant-necklace</desc>
  <defs>
    <linearGradient id="bg" x1="0" y1="0" x2="1" y2="1">
      <stop offset="0" stop-color="#07070a"/>
      <stop offset="0.58" stop-color="#101114"/>
      <stop offset="1" stop-color="#050506"/>
    </linearGradient>
    <radialGradient id="glow" cx="32%" cy="18%" r="60%">
      <stop offset="0" stop-color="#d8d8d0" stop-opacity=".34"/>
      <stop offset=".55" stop-color="#d8d8d0" stop-opacity=".09"/>
      <stop offset="1" stop-color="#d8d8d0" stop-opacity="0"/>
    </radialGradient>
    <filter id="shadow" x="-20%" y="-20%" width="140%" height="140%">
      <feDropShadow dx="0" dy="30" stdDeviation="28" flood-color="#000" flood-opacity=".55"/>
    </filter>
  </defs>
  <rect width="960" height="1120" fill="url(#bg)"/>
  <rect width="960" height="1120" fill="url(#glow)"/>
  <rect y="910" width="960" height="210" fill="#000" opacity=".38"/>
  <g filter="url(#shadow)" stroke-linecap="round" stroke-linejoin="round">
    <ellipse cx="286" cy="240" rx="25" ry="16" fill="none" stroke="#d8d8d0" stroke-width="9"/>
    <ellipse cx="330" cy="240" rx="25" ry="16" fill="none" stroke="#d8d8d0" stroke-width="9"/>
    <ellipse cx="374" cy="240" rx="25" ry="16" fill="none" stroke="#d8d8d0" stroke-width="9"/>
    <ellipse cx="418" cy="240" rx="25" ry="16" fill="none" stroke="#d8d8d0" stroke-width="9"/>
    <ellipse cx="462" cy="240" rx="25" ry="16" fill="none" stroke="#d8d8d0" stroke-width="9"/>
    <ellipse cx="506" cy="240" rx="25" ry="16" fill="none" stroke="#d8d8d0" stroke-width="9"/>
    <ellipse cx="550" cy="240" rx="25" ry="16" fill="none" stroke="#d8d8d0" stroke-width="9"/>
    <ellipse cx="594" cy="240" rx="25" ry="16" fill="none" stroke="#d8d8d0" stroke-width="9"/>
    <ellipse cx="638" cy="240" rx="25" ry="16" fill="none" stroke="#d8d8d0" stroke-width="9"/>
    <ellipse cx="682" cy="240" rx="25" ry="16" fill="none" stroke="#d8d8d0" stroke-width="9"/>
    <path d="M480 260v236" stroke="#d8d8d0" stroke-width="9"/>
    <path d="M480 496 384 710h192z" fill="#d8d8d0" fill-opacity=".45" stroke="#d8d8d0" stroke-width="10"/>
  </g>
  <text x="80" y="990" fill="#f3f0e8" opacity=".82" font-family="Arial, sans-serif" font-size="36" letter-spacing="3">VEIL-PENDANT-NECKLACE</text>
  <text x="80" y="1042" fill="#d8d8d0" opacity=".72" font-family="Arial, sans-serif" font-size="22" letter-spacing="5">NOIR FRAME</text>
</svg>
